<?xml version="1.0" encoding="UTF-8"?>
<!--Generator: Apple Native CoreSVG 175.5-->
<!DOCTYPE svg
PUBLIC "-//W3C//DTD SVG 1.1//EN"
       "http://www.w3.org/Graphics/SVG/1.1/DTD/svg11.dtd">
<svg version="1.1" xmlns="http://www.w3.org/2000/svg" xmlns:xlink="http://www.w3.org/1999/xlink" width="17.9297" height="17.9385">
 <g>
  <rect height="17.9385" opacity="0" width="17.9297" x="0" y="0"/>
  <path d="M8.96484 17.9297C13.8691 17.9297 17.9297 13.8604 17.9297 8.96484C17.9297 4.06055 13.8604 0 8.95605 0C4.06055 0 0 4.06055 0 8.96484C0 13.8604 4.06934 17.9297 8.96484 17.9297Z" fill="#ffc600"/>
  <path d="M8.95605 16.5938C6.94336 16.5938 4.9043 15.7676 3.55957 14.335C4.50879 12.8408 6.57422 11.9619 8.95605 11.9619C11.3203 11.9619 13.4033 12.8232 14.3613 14.335C13.0078 15.7676 10.9775 16.5938 8.95605 16.5938ZM8.95605 10.4678C7.26855 10.4502 5.94141 9.04395 5.94141 7.1543C5.93262 5.37891 7.27734 3.90234 8.95605 3.90234C10.6436 3.90234 11.9707 5.37891 11.9707 7.1543C11.9707 9.04395 10.6523 10.4854 8.95605 10.4678Z" fill="#ffffff" fill-opacity="0.85"/>
 </g>
</svg>
